<?xml version="1.0" standalone="no"?>
<!DOCTYPE svg PUBLIC "-//W3C//DTD SVG 20010904//EN"
 "http://www.w3.org/TR/2001/REC-SVG-20010904/DTD/svg10.dtd">
<svg version="1.0" xmlns="http://www.w3.org/2000/svg"
 width="1280.000000pt" height="1345.000000pt" viewBox="0 0 1280.000000 1345.000000"
 preserveAspectRatio="xMidYMid meet">
<metadata>
Created by potrace 1.16, written by Peter Selinger 2001-2019
</metadata>
<g transform="translate(0.000000,1345.000000) scale(0.100000,-0.100000)"
fill="#000000" stroke="none">
<path d="M4423 13420 c-18 -10 -39 -31 -49 -45 -9 -14 -92 -339 -186 -723 -93
-383 -171 -704 -174 -713 -2 -9 -89 -84 -192 -166 -465 -372 -783 -691 -924
-929 -158 -268 -305 -627 -382 -931 -30 -117 -66 -319 -66 -367 0 -31 -3 -34
-72 -61 -193 -75 -423 -207 -580 -334 -90 -72 -222 -210 -270 -282 l-33 -50
-70 6 c-157 14 -426 73 -624 137 -208 66 -436 179 -595 293 -43 30 -80 55 -84
55 -4 0 -27 -25 -50 -55 l-43 -55 68 -49 c292 -215 690 -369 1154 -447 85 -14
155 -27 156 -28 1 -1 -11 -37 -28 -80 -63 -163 -90 -381 -70 -570 7 -59 10
-110 7 -113 -10 -10 -158 -43 -276 -62 -191 -31 -386 -44 -595 -40 l-190 4 -3
-66 -3 -66 32 -7 c60 -12 464 -6 604 9 147 16 323 45 413 69 39 10 54 10 57 2
107 -388 320 -735 637 -1042 620 -599 1554 -989 2802 -1169 230 -33 528 -63
713 -71 124 -6 151 -10 145 -21 -16 -28 -492 -502 -587 -584 -232 -200 -430
-310 -507 -280 -13 5 -97 77 -188 161 -210 193 -335 287 -463 350 -267 129
-506 95 -722 -102 -114 -105 -165 -215 -165 -357 0 -217 135 -457 406 -721
149 -145 255 -232 409 -334 140 -94 204 -125 340 -169 158 -50 237 -62 420
-61 237 0 409 41 640 154 203 98 382 228 560 406 l95 95 16 -28 c74 -135 112
-196 189 -304 123 -173 258 -341 347 -430 l76 -77 -468 -455 c-500 -487 -566
-548 -1044 -958 l-309 -266 -51 9 c-238 37 -739 53 -956 29 -552 -60 -860
-248 -945 -576 -20 -79 -20 -245 1 -316 59 -199 225 -341 508 -434 380 -124
989 -156 1721 -91 168 15 251 38 330 91 120 80 1133 994 1628 1470 557 535
823 778 840 768 7 -4 95 -62 197 -128 324 -212 576 -358 905 -522 338 -169
635 -294 925 -388 80 -26 149 -50 153 -54 4 -4 -27 -59 -69 -122 -96 -144
-208 -370 -234 -474 -89 -352 50 -593 415 -716 99 -34 258 -34 365 0 402 125
892 622 1174 1191 264 532 261 950 -8 1118 -195 122 -378 132 -611 35 -85 -36
-146 -33 -274 12 -168 59 -346 132 -495 203 l-140 67 216 12 c254 13 418 33
618 73 444 90 813 248 1115 479 82 62 255 231 325 316 369 451 524 1071 395
1581 -80 316 -283 507 -521 492 -190 -12 -331 -149 -625 -604 -174 -270 -252
-386 -337 -499 -171 -227 -355 -417 -527 -540 -114 -82 -315 -182 -470 -234
-124 -42 -334 -96 -341 -88 -3 2 16 40 42 83 120 201 276 567 310 724 51 242
-41 480 -273 701 -178 169 -664 524 -928 676 -177 102 -397 191 -518 209 l-48
6 83 47 c518 293 959 700 1279 1181 95 143 198 336 244 460 16 41 31 78 34 82
3 4 94 12 201 18 186 10 438 35 447 43 5 5 -14 128 -21 134 -2 3 -69 -2 -148
-11 -79 -8 -209 -18 -289 -22 l-145 -7 22 112 c44 217 56 481 33 707 -6 60
-12 124 -13 143 l-1 34 145 59 c112 45 429 164 517 193 16 5 -26 135 -44 135
-19 0 -305 -103 -477 -172 -83 -33 -156 -62 -162 -65 -7 -2 -18 24 -29 69
-112 463 -337 960 -623 1378 l-85 124 141 1205 c139 1182 141 1206 124 1241
-32 66 -115 98 -185 71 -13 -5 -383 -244 -821 -530 l-798 -521 -112 36 c-258
84 -600 159 -857 188 -413 47 -799 41 -1209 -20 -34 -5 -44 4 -600 521 -311
290 -579 533 -597 541 -45 20 -102 17 -140 -6z m567 -571 c267 -249 531 -494
587 -546 l103 -95 142 21 c223 33 355 42 598 42 504 0 920 -65 1391 -220 l147
-48 803 524 c442 289 814 531 827 539 20 13 22 13 22 -3 0 -9 -63 -554 -140
-1211 -137 -1164 -140 -1195 -123 -1222 10 -15 66 -99 125 -186 211 -314 382
-660 495 -1004 46 -139 105 -384 95 -388 -42 -14 -344 -163 -447 -221 -135
-76 -301 -186 -369 -244 l-40 -34 44 -51 c36 -42 46 -49 60 -39 8 7 51 39 94
71 44 33 127 88 185 123 146 88 490 258 501 247 5 -5 14 -72 21 -149 20 -232
0 -517 -49 -710 l-18 -70 -100 3 c-235 7 -491 44 -628 92 -33 11 -65 20 -71
20 -12 0 -62 -117 -54 -124 7 -6 132 -45 198 -61 106 -27 317 -55 469 -62 78
-3 142 -7 142 -8 0 -1 -12 -30 -26 -65 -140 -345 -441 -754 -777 -1058 -502
-452 -1104 -762 -1832 -942 -472 -117 -887 -164 -1440 -164 -602 0 -1157 63
-1764 200 -1258 284 -2164 872 -2541 1648 -54 111 -130 314 -130 347 0 8 33
26 80 42 44 16 80 33 80 38 0 4 -12 33 -26 62 l-27 54 -64 -25 c-53 -21 -66
-23 -73 -12 -14 23 -23 195 -15 293 9 113 42 249 86 346 l33 73 58 -5 58 -5 0
68 c0 56 -3 69 -17 72 -40 8 185 233 334 335 154 106 368 210 535 259 l46 14
7 68 c30 305 117 625 257 942 65 148 157 321 220 415 145 215 526 578 952 909
l125 97 15 67 c8 37 87 363 176 725 88 362 160 660 160 663 0 2 3 4 8 4 4 0
225 -203 492 -451z m3620 -6962 c227 -65 460 -197 855 -481 508 -367 664 -545
682 -781 9 -121 -49 -307 -187 -593 -262 -542 -597 -905 -901 -977 -216 -51
-453 36 -583 214 -157 213 -82 438 306 917 71 88 88 127 88 204 0 102 -27 149
-124 217 -44 31 -198 144 -341 251 -373 279 -520 434 -582 615 -41 116 -24
198 58 277 43 42 211 119 329 152 93 26 282 19 400 -15z m-943 -256 c-19 -99
26 -245 120 -389 79 -121 244 -274 513 -476 140 -106 292 -218 337 -250 71
-49 84 -63 93 -97 6 -22 8 -50 4 -62 -4 -12 -41 -65 -83 -117 -220 -272 -306
-410 -362 -575 -18 -55 -24 -92 -24 -170 0 -116 14 -167 76 -270 22 -37 39
-68 37 -69 -30 -22 -316 -258 -453 -375 -333 -286 -580 -512 -1010 -926 -468
-450 -1293 -1202 -1654 -1508 -91 -76 -197 -94 -701 -118 -639 -29 -1149 35
-1430 182 -169 88 -252 202 -258 355 -15 349 250 555 793 619 243 28 666 18
958 -24 l118 -17 332 285 c555 476 693 604 1480 1380 l179 176 -44 34 c-151
120 -382 394 -550 651 -108 165 -290 551 -358 760 -101 310 -100 640 3 757 55
63 91 73 267 73 324 0 884 67 1221 145 212 49 334 74 370 74 l36 1 -10 -49z
m4717 -179 c99 -54 184 -192 232 -377 35 -133 45 -398 21 -551 -72 -450 -322
-882 -675 -1163 -339 -269 -794 -444 -1338 -516 -178 -23 -496 -38 -673 -32
l-164 6 -71 42 c-39 23 -127 78 -194 123 l-124 81 44 34 c73 58 241 232 301
312 l58 76 62 7 c89 10 384 87 502 131 391 145 654 350 963 750 68 88 221 306
339 485 357 537 398 586 528 621 49 13 136 0 189 -29z m-6815 -401 c3 -231 56
-435 198 -761 47 -109 53 -127 42 -147 -20 -37 -246 -253 -334 -319 -214 -161
-439 -267 -663 -311 -120 -23 -339 -23 -452 1 -175 37 -293 88 -450 192 -152
102 -255 188 -405 338 -284 284 -394 526 -324 711 46 123 217 251 370 277 86
14 189 -6 289 -56 131 -66 219 -135 465 -360 139 -128 166 -149 214 -163 129
-37 306 38 551 234 109 87 370 332 439 412 29 33 54 61 56 61 1 0 3 -49 4
-109z m2959 -2021 c56 -45 178 -97 272 -116 139 -28 309 -5 433 58 l38 19 67
-49 c272 -198 759 -462 1114 -603 158 -63 319 -116 373 -123 62 -8 137 6 236
44 160 61 274 61 404 0 208 -99 249 -334 124 -705 -172 -511 -645 -1104 -1047
-1313 -173 -90 -288 -110 -413 -72 -94 28 -196 81 -254 132 -52 46 -101 140
-110 213 -19 150 59 359 234 629 50 76 93 153 97 171 15 80 -42 163 -128 185
-187 49 -608 216 -928 368 -279 132 -680 360 -998 569 l-173 113 48 42 c175
156 553 467 566 468 5 0 25 -13 45 -30z"/>
<path  d="M4146 11454 c-485 -108 -987 -620 -1185 -1209 -65 -193 -84 -304 -85
-490 -1 -176 9 -234 56 -358 77 -200 217 -334 414 -393 85 -26 281 -24 384 4
241 65 437 182 649 387 322 312 536 721 591 1132 20 143 8 346 -25 458 -67
228 -205 381 -407 453 -93 33 -282 41 -392 16z m287 -129 c232 -49 374 -230
408 -520 20 -170 -18 -410 -97 -618 -195 -510 -623 -941 -1042 -1048 -89 -23
-243 -25 -317 -5 -170 45 -284 166 -347 366 -20 67 -23 94 -23 250 1 153 4
189 27 285 148 624 664 1200 1155 1289 102 19 153 19 236 1z"/>
<path d="M3445 10146 c-94 -43 -145 -128 -144 -241 0 -116 39 -191 127 -242
124 -73 287 -1 335 148 33 102 13 198 -58 277 -73 82 -166 102 -260 58z"/>
<path d="M7485 11065 c-286 -66 -586 -267 -826 -553 -260 -311 -406 -644 -440
-1007 -18 -192 6 -375 68 -525 93 -223 217 -335 450 -407 79 -24 103 -26 243
-26 136 0 167 3 255 26 534 142 1026 740 1139 1383 47 269 20 521 -78 719 -94
188 -226 306 -423 377 -75 26 -297 34 -388 13z m346 -144 c164 -51 300 -185
369 -363 219 -567 -185 -1464 -800 -1777 -257 -131 -526 -141 -759 -28 -252
123 -357 546 -244 982 98 380 364 761 696 998 263 189 522 255 738 188z"/>
<path d="M6850 9771 c-118 -38 -189 -137 -190 -262 0 -169 140 -295 290 -259
71 17 142 83 170 158 50 131 -5 287 -122 348 -35 18 -114 26 -148 15z"/>
<path d="M4545 9153 c-91 -8 -220 -35 -266 -54 -27 -12 -63 -37 -79 -56 -26
-29 -30 -42 -30 -91 0 -159 106 -381 244 -509 97 -91 139 -108 266 -108 89 1
117 5 185 28 317 111 614 351 646 520 28 151 -90 236 -366 267 -83 9 -509 11
-600 3z"/>
<path d="M6505 8058 c-285 -94 -690 -189 -1035 -242 -390 -60 -641 -78 -1105
-79 -360 -1 -545 9 -739 40 -55 8 -115 13 -133 10 -70 -12 -123 -77 -123 -151
0 -87 147 -385 290 -589 90 -128 308 -344 445 -441 190 -135 450 -251 686
-306 218 -51 567 -75 740 -51 634 89 1029 353 1212 809 82 205 108 358 114
668 5 237 4 254 -15 297 -45 102 -114 109 -337 35z m219 -100 c10 -37 7 -308
-5 -419 -64 -633 -394 -993 -1032 -1128 -325 -69 -735 -39 -1074 80 -479 168
-891 572 -1080 1062 -20 54 -31 93 -25 99 5 5 27 5 53 -1 259 -58 1075 -66
1565 -16 446 46 990 159 1399 289 94 29 175 54 181 55 7 0 14 -9 18 -21z"/>
</g>
</svg>
